# xmcd CD database file
#
# Track frame offsets:
#	183
#	11628
#	22805
#	34873
#	41628
#	50345
#	60788
#	72668
#	83330
#	94145
#	102773
#	111528
#	121940
#	132408
#
# Disc length: 1895 seconds
#
# Revision: 1
# Processed by: cddbd v1.4PL0 Copyright (c) Steve Scherf et al.
# Submitted via: CDex 1.40Release
#
DISCID=b007650e
DTITLE=Waylon Jennings - White Lightning
DYEAR=1993
DGENRE=Country
TTITLE0=Sally Was a Good Old Girl
TTITLE1=Big Mamou
TTITLE2=Don't Think Twice, It's Alright
TTITLE3=It's So Easy
TTITLE4=Love's Gonna Live Here
TTITLE5=White Lightning
TTITLE6=Crying
TTITLE7=Burning Memories
TTITLE8=Dream Baby
TTITLE9=Abilene
TTITLE10=Jole Blon
TTITLE11=Money (That's What I Want)
TTITLE12=Lorena
TTITLE13=When Sin Stops
EXTD=YEAR: 1993 ID3G: 2
EXTT0=
EXTT1=
EXTT2=
EXTT3=
EXTT4=
EXTT5=
EXTT6=
EXTT7=
EXTT8=
EXTT9=
EXTT10=
EXTT11=
EXTT12=
EXTT13=
PLAYORDER=
